<?xml version="1.0" encoding="UTF-8"?>
<svg version="1.1" xmlns="http://www.w3.org/2000/svg" width="512" height="512">
<path d="M0 0 C1.36723206 0.00456207 1.36723206 0.00456207 2.76208496 0.00921631 C17.61407416 0.08217595 31.8015602 1.04777794 46.3125 4.4375 C47.22193359 4.64117188 48.13136719 4.84484375 49.06835938 5.0546875 C84.59808817 13.20163168 116.1739893 30.34496743 143.3125 54.4375 C144.3025 55.30503906 145.2925 56.17257813 146.3125 57.06640625 C151.74038429 61.89692827 156.67724246 66.85090139 161.3125 72.4375 C162.04726563 73.2728125 162.78203125 74.108125 163.5390625 74.96875 C190.75470116 106.41793245 207.47627069 146.26343056 212.3125 187.4375 C212.4053125 188.16952637 212.498125 188.90155273 212.59375 189.65576172 C219.12510466 246.21029522 202.04985454 303.13649309 166.84472656 347.56201172 C163.04757192 352.20983549 158.98025689 356.59243597 154.80371094 360.89941406 C153.31914402 362.43064713 151.85113762 363.97664477 150.3828125 365.5234375 C143.25755114 372.93167285 135.55560231 379.31186848 127.3125 385.4375 C126.06919922 386.37335938 126.06919922 386.37335938 124.80078125 387.328125 C79.28438565 420.40285728 21.68104416 432.55504446 -33.66796875 424.47265625 C-74.14441741 417.85902915 -110.9145761 400.43004415 -141.6875 373.4375 C-142.57187744 372.6647876 -142.57187744 372.6647876 -143.47412109 371.87646484 C-149.66557172 366.43105814 -155.43075018 360.79477206 -160.6875 354.4375 C-161.42097656 353.60347656 -162.15445313 352.76945312 -162.91015625 351.91015625 C-190.19284075 320.3902244 -205.21150388 282.23548772 -211.6875 241.4375 C-211.864021 240.36765869 -212.04054199 239.29781738 -212.22241211 238.19555664 C-212.75115582 233.9231409 -212.88521024 229.74551634 -212.92578125 225.4453125 C-212.9355751 224.59043243 -212.94536896 223.73555237 -212.95545959 222.85476685 C-213.1265698 204.03094032 -213.03076696 185.8578106 -208.6875 167.4375 C-208.46787598 166.49084473 -208.24825195 165.54418945 -208.02197266 164.56884766 C-204.9721266 151.78021506 -200.87366741 139.51184821 -195.6875 127.4375 C-195.39149902 126.73850586 -195.09549805 126.03951172 -194.79052734 125.31933594 C-187.49593811 108.30256862 -177.47476739 92.69024904 -165.6875 78.4375 C-165.20249023 77.85097656 -164.71748047 77.26445313 -164.21777344 76.66015625 C-155.1624269 65.78224155 -145.76581479 56.2938929 -134.6875 47.4375 C-133.53507812 46.46683594 -133.53507812 46.46683594 -132.359375 45.4765625 C-109.28061593 26.24426328 -81.40088697 13.45258782 -52.4375 6.0625 C-51.55360596 5.83594727 -50.66971191 5.60939453 -49.7590332 5.37597656 C-33.27422016 1.42876235 -16.91621361 -0.12084675 0 0 Z M-114.5625 105.37890625 C-116.34027551 107.35009715 -118.02173561 109.37065134 -119.6875 111.4375 C-120.45707031 112.38109375 -121.22664063 113.3246875 -122.01953125 114.296875 C-148.88080775 147.83039861 -160.64430413 190.03074916 -156.2265625 232.7578125 C-150.86003561 273.83744985 -129.13761727 312.52083908 -96.3125 337.93359375 C-71.11567759 356.5257596 -40.28678951 369.37235541 -8.6875 370.4375 C-7.5015625 370.4890625 -6.315625 370.540625 -5.09375 370.59375 C18.97076371 371.30594424 43.51213962 366.77830895 65.3125 356.4375 C66.43785156 355.91414063 67.56320312 355.39078125 68.72265625 354.8515625 C84.34407168 347.33832461 97.68945374 337.22167293 110.3125 325.4375 C111.44171875 324.38949219 111.44171875 324.38949219 112.59375 323.3203125 C136.69030761 300.15707226 152.4656632 266.56026363 156.3125 233.4375 C156.47685547 232.20193359 156.47685547 232.20193359 156.64453125 230.94140625 C161.48703221 188.5210978 147.96958153 146.63231675 121.73828125 113.390625 C118.80050826 109.81420571 115.68429848 106.59609343 112.3125 103.4375 C110.64583333 101.77083333 108.97916667 100.10416667 107.3125 98.4375 C85.68556587 77.20313398 57.86515869 64.25549005 28.3125 58.4375 C27.260625 58.21191406 26.20875 57.98632812 25.125 57.75390625 C-25.6625836 48.54865672 -79.20542567 68.7696022 -114.5625 105.37890625 Z " fill="#000000" transform="translate(212.6875,-0.4375)"/>
<path d="M0 0 C3.43270986 1.93220932 6.19333333 3.94258967 8.97764587 6.72367859 C9.7331221 7.47351517 10.48859833 8.22335175 11.26696777 8.99591064 C12.08113159 9.81412292 12.89529541 10.63233521 13.73413086 11.4753418 C15.03750145 12.77345543 15.03750145 12.77345543 16.36720276 14.09779358 C18.74293359 16.46624099 21.11408856 18.83908929 23.48299861 21.2143476 C25.97024883 23.70667692 28.46239312 26.19410491 30.95375061 28.68232727 C35.13935739 32.86429794 39.32073638 37.05046107 43.49975586 41.23901367 C48.31691935 46.06703967 53.1412162 50.88784759 57.9693231 55.7049281 C62.12520447 59.85170093 66.27713469 64.00239955 70.42585474 68.15633708 C72.89878423 70.63236947 75.37300879 73.10706714 77.85081291 75.57822227 C80.61847113 78.33897186 83.37782559 81.1079323 86.13647461 83.87768555 C86.9486142 84.68577667 87.76075378 85.4938678 88.59750366 86.32644653 C101.03538536 98.85683205 107.45840637 110.38704277 107.43383789 128.29418945 C107.14838706 141.25081448 102.02523293 150.76986444 93.125 159.9296875 C82.28392417 170.1150531 70.3119351 172.59316616 55.94140625 172.31640625 C50.06439541 172.05153625 45.20631974 170.75360518 40 168 C39.33613281 167.67257812 38.67226563 167.34515625 37.98828125 167.0078125 C23.7239253 159.07995544 11.89384023 144.05715717 0.48828125 132.65625 C-1.37540128 130.79578588 -3.2391568 128.93539487 -5.10298157 127.07507324 C-8.9836251 123.20077592 -12.86186158 119.32408007 -16.73901367 115.44628906 C-21.2187494 110.96594838 -25.70408335 106.4912653 -30.1919629 102.0190835 C-34.52871588 97.69695731 -38.85995041 93.3693414 -43.18909645 89.03959656 C-45.02596622 87.20390855 -46.86446168 85.36984579 -48.70459557 83.53742981 C-51.26313492 80.98863494 -53.81532415 78.43364698 -56.3659668 75.87695312 C-57.51048813 74.74086105 -57.51048813 74.74086105 -58.6781311 73.58181763 C-59.71436363 72.53929337 -59.71436363 72.53929337 -60.77153015 71.47570801 C-61.37446742 70.87331551 -61.97740469 70.270923 -62.59861279 69.65027618 C-64 68 -64 68 -65 65 C-63.72769531 64.12601563 -63.72769531 64.12601563 -62.4296875 63.234375 C-54.03736693 57.39634397 -46.20104222 51.12993162 -38.54394531 44.36035156 C-37.16188282 43.142633 -35.76543931 41.94128178 -34.3671875 40.7421875 C-30.14167718 37.08962773 -26.33229397 33.30850292 -22.73046875 29.0390625 C-20.95770203 26.95015905 -19.10833548 24.95038265 -17.25 22.9375 C-10.89515809 15.82256916 -5.28752682 7.93129024 0 0 Z " fill="#000000" transform="translate(405,340)"/>
<path d="M0 0 C12.67231662 6.44540242 20.79926689 18.95257079 25.3203125 32.09765625 C26.08402498 34.48736379 26.83640461 36.8807191 27.578125 39.27734375 C33.02151631 56.04060953 39.67040487 71.04959984 51.703125 84.15234375 C52.53328125 85.12300781 53.3634375 86.09367187 54.21875 87.09375 C60.93090841 94.85460551 68.44858133 101.09223877 76.703125 107.15234375 C77.51007813 107.75304687 78.31703125 108.35375 79.1484375 108.97265625 C84.6685438 112.95405696 90.44334247 116.53230518 96.203125 120.15234375 C107.60561507 127.32922472 107.60561507 127.32922472 111.828125 130.15234375 C112.57320312 130.64734375 113.31828125 131.14234375 114.0859375 131.65234375 C116.01140492 133.43828454 116.45984115 134.5555531 116.703125 137.15234375 C114.86152827 139.63849933 113.69841789 140.15391279 110.703125 141.15234375 C76.81137315 143.567527 43.64899585 127.76005899 18.265625 106.27734375 C-2.71413806 87.96906921 -19.54417848 60.85369079 -21.47265625 32.57470703 C-21.61262707 29.68280987 -21.68825608 26.79721116 -21.734375 23.90234375 C-21.75685303 22.99121826 -21.77933105 22.08009277 -21.80249023 21.14135742 C-21.77914528 14.54072244 -20.46389982 8.98336291 -17.296875 3.15234375 C-12.27941861 -1.74842761 -6.46063206 -2.38428088 0 0 Z " fill="#000000" transform="translate(119.296875,192.84765625)"/>
</svg>
